<svg width="389" height="550" viewBox="0 0 389 550" fill="none" xmlns="http://www.w3.org/2000/svg">
<path d="M217.109 54.2241C172.612 52.4556 126.62 67.7974 108.502 106.879L108.064 107.823L108.784 397.471H113.466H322.532V107.747L322.04 106.76C305.914 74.383 261.606 55.9926 217.109 54.2241ZM216.736 63.5955C258.423 65.2523 299.144 83.2903 313.151 110.181V388.093H118.144L117.453 110.091C133.663 76.267 174.965 61.9353 216.736 63.5955Z" fill="black"/>
<path d="M164.207 129.174C160.128 129.174 156.696 132.604 156.696 136.683V364.956C156.696 369.034 160.128 372.461 164.207 372.461H262.872C266.951 372.461 270.379 369.034 270.379 364.956V136.683C270.379 132.604 266.951 129.174 262.872 129.174H164.207ZM166.078 138.552H260.998V363.082H166.078V138.552Z" fill="black"/>
<path d="M46.5249 240.073C46.0174 238.902 45.5415 237.837 45.0972 236.879C44.6529 235.942 44.1881 234.708 43.7028 233.175C43.302 231.877 42.9653 230.462 42.6927 228.93C42.3988 227.419 42.2542 225.75 42.2589 223.921C42.2678 220.476 42.7545 217.34 43.719 214.514C44.7047 211.71 46.232 209.268 48.3007 207.189C50.3268 205.153 52.8942 203.565 56.0029 202.424C59.1328 201.284 62.7612 200.719 66.8879 200.73C70.802 200.74 74.2998 201.302 77.3813 202.415C80.4629 203.529 83.0646 205.131 85.1865 207.22C87.2446 209.246 88.8125 211.685 89.89 214.537C90.9675 217.411 91.5017 220.592 91.4927 224.079C91.4862 226.631 91.1712 229.172 90.5478 231.701C89.9243 234.251 88.8321 237.077 87.2713 240.177L79.7729 240.158L79.7742 239.68C81.9719 237.07 83.574 234.479 84.5804 231.909C85.5868 229.338 86.0938 226.585 86.1014 223.651C86.1076 221.248 85.7196 219.077 84.9375 217.14C84.1767 215.224 82.9792 213.509 81.3452 211.995C79.7536 210.524 77.7357 209.37 75.2915 208.535C72.8686 207.72 70.0618 207.309 66.871 207.301C63.5313 207.292 60.6584 207.731 58.2524 208.618C55.8463 209.527 53.8863 210.691 52.3723 212.112C50.7943 213.597 49.6199 215.327 48.849 217.303C48.0993 219.3 47.7217 221.404 47.716 223.616C47.7081 226.657 48.2219 229.508 49.2574 232.169C50.2929 234.83 51.85 237.322 53.9287 239.645L53.9275 240.092L46.5249 240.073Z" fill="black"/>
<path d="M84.805 305.947L84.8487 288.977L42.9535 288.869L42.9698 282.553L84.8649 282.661L84.9086 265.691L90.5244 265.705L90.4208 305.961L84.805 305.947Z" fill="black"/>
<path d="M117.496 486.07H100.61V481.706H106.21V447.686H100.61V443.322H117.496V447.686H111.896V481.706H117.496V486.07Z" fill="black"/>
<path d="M153.565 486.069H148.166V467.81C148.166 466.337 148.08 464.959 147.908 463.676C147.736 462.375 147.42 461.36 146.96 460.633C146.482 459.829 145.792 459.236 144.893 458.853C143.993 458.451 142.825 458.25 141.389 458.25C139.915 458.25 138.374 458.614 136.766 459.341C135.157 460.069 133.616 460.997 132.142 462.126V486.069H126.743V454.001H132.142V457.561C133.827 456.164 135.569 455.073 137.369 454.288C139.168 453.504 141.016 453.111 142.911 453.111C146.376 453.111 149.018 454.154 150.837 456.241C152.656 458.327 153.565 461.332 153.565 465.255V486.069Z" fill="black"/>
<path d="M191.127 454.002L178.147 486.07H172.719L159.825 454.002H165.684L175.62 479.524L185.47 454.002H191.127Z" fill="black"/>
<path d="M223.119 486.07H217.749V482.653C217.27 482.979 216.619 483.438 215.796 484.031C214.992 484.605 214.207 485.065 213.441 485.409C212.541 485.85 211.508 486.213 210.34 486.5C209.172 486.806 207.803 486.96 206.233 486.96C203.342 486.96 200.892 486.003 198.882 484.089C196.871 482.175 195.866 479.734 195.866 476.768C195.866 474.337 196.383 472.375 197.417 470.882C198.47 469.37 199.963 468.184 201.897 467.323C203.85 466.461 206.195 465.878 208.933 465.571C211.67 465.265 214.609 465.035 217.749 464.882V464.05C217.749 462.825 217.529 461.81 217.088 461.007C216.667 460.203 216.054 459.571 215.25 459.112C214.485 458.672 213.566 458.375 212.494 458.222C211.421 458.069 210.301 457.992 209.134 457.992C207.717 457.992 206.137 458.183 204.395 458.566C202.653 458.93 200.853 459.466 198.996 460.174H198.709V454.691C199.762 454.403 201.284 454.088 203.275 453.743C205.266 453.399 207.229 453.226 209.162 453.226C211.421 453.226 213.384 453.418 215.049 453.801C216.734 454.164 218.189 454.796 219.414 455.695C220.621 456.576 221.54 457.715 222.171 459.112C222.803 460.509 223.119 462.241 223.119 464.308V486.07ZM217.749 478.175V469.246C216.102 469.342 214.159 469.485 211.919 469.677C209.698 469.868 207.937 470.146 206.635 470.509C205.084 470.949 203.83 471.638 202.873 472.576C201.916 473.495 201.437 474.768 201.437 476.395C201.437 478.232 201.993 479.62 203.103 480.557C204.213 481.476 205.908 481.935 208.186 481.935C210.081 481.935 211.814 481.572 213.384 480.845C214.954 480.098 216.409 479.208 217.749 478.175ZM219.702 437.953L211.862 448.69H207.583L212.723 437.953H219.702Z" fill="black"/>
<path d="M238.97 486.07H233.571V441.398H238.97V486.07Z" fill="black"/>
<path d="M255.454 448.633H249.366V443.035H255.454V448.633ZM255.11 486.07H249.711V454.002H255.11V486.07Z" fill="black"/>
<path d="M291.81 486.07H286.411V482.711C284.861 484.051 283.243 485.094 281.558 485.84C279.873 486.587 278.045 486.96 276.073 486.96C272.244 486.96 269.2 485.486 266.941 482.539C264.701 479.591 263.581 475.505 263.581 470.28C263.581 467.562 263.964 465.141 264.73 463.016C265.515 460.892 266.568 459.083 267.889 457.59C269.191 456.136 270.703 455.026 272.426 454.26C274.168 453.495 275.968 453.112 277.825 453.112C279.51 453.112 281.003 453.294 282.305 453.657C283.607 454.002 284.975 454.547 286.411 455.294V441.398H291.81V486.07ZM286.411 478.175V459.772C284.956 459.122 283.654 458.672 282.506 458.423C281.357 458.174 280.103 458.05 278.744 458.05C275.719 458.05 273.364 459.102 271.679 461.208C269.995 463.313 269.152 466.299 269.152 470.165C269.152 473.974 269.803 476.873 271.105 478.864C272.407 480.835 274.494 481.821 277.365 481.821C278.897 481.821 280.448 481.486 282.018 480.816C283.587 480.127 285.052 479.247 286.411 478.175Z" fill="black"/>
<path d="M329.775 470.05C329.775 475.275 328.434 479.399 325.754 482.423C323.074 485.447 319.484 486.959 314.985 486.959C310.448 486.959 306.839 485.447 304.159 482.423C301.498 479.399 300.167 475.275 300.167 470.05C300.167 464.825 301.498 460.7 304.159 457.676C306.839 454.633 310.448 453.111 314.985 453.111C319.484 453.111 323.074 454.633 325.754 457.676C328.434 460.7 329.775 464.825 329.775 470.05ZM324.203 470.05C324.203 465.896 323.39 462.815 321.762 460.805C320.135 458.777 317.876 457.762 314.985 457.762C312.056 457.762 309.778 458.777 308.15 460.805C306.542 462.815 305.738 465.896 305.738 470.05C305.738 474.069 306.552 477.122 308.179 479.208C309.806 481.275 312.075 482.309 314.985 482.309C317.857 482.309 320.106 481.285 321.734 479.237C323.38 477.17 324.203 474.107 324.203 470.05Z" fill="black"/>
<g filter="url(#filter0_b_286_6256)">
<rect width="191" height="44" fill="black" fill-opacity="0.4"/>
</g>
<defs>
<filter id="filter0_b_286_6256" x="-15" y="-15" width="221" height="74" filterUnits="userSpaceOnUse" color-interpolation-filters="sRGB">
<feFlood flood-opacity="0" result="BackgroundImageFix"/>
<feGaussianBlur in="BackgroundImage" stdDeviation="7.5"/>
<feComposite in2="SourceAlpha" operator="in" result="effect1_backgroundBlur_286_6256"/>
<feBlend mode="normal" in="SourceGraphic" in2="effect1_backgroundBlur_286_6256" result="shape"/>
</filter>
</defs>
</svg>
