<svg width="389" height="551" viewBox="0 0 389 551" fill="none" xmlns="http://www.w3.org/2000/svg">
<path d="M217.109 54.2241C172.612 52.4556 126.62 67.7975 108.502 106.879L108.064 107.823L108.784 397.473H113.466H322.532V107.747L322.04 106.76C305.914 74.3831 261.606 55.9926 217.109 54.2241ZM216.736 63.5955C258.423 65.2523 299.144 83.2905 313.151 110.181V388.094H118.144L117.453 110.091C133.663 76.2671 174.965 61.9353 216.736 63.5955Z" fill="black"/>
<path d="M263.617 280.979H163.452V303.397H263.617V280.979Z" fill="#D30000"/>
<path d="M263.617 222.459H163.452V244.878H263.617V222.459Z" fill="#D30000"/>
<path d="M164.207 129.174C160.128 129.174 156.696 132.604 156.696 136.683V364.957C156.696 369.035 160.128 372.462 164.207 372.462H262.872C266.951 372.462 270.379 369.035 270.379 364.957V136.683C270.379 132.604 266.951 129.174 262.872 129.174H164.207ZM166.078 138.552H260.998V363.083H166.078V138.552Z" fill="black"/>
<path d="M46.5249 240.075C46.0174 238.904 45.5415 237.839 45.0972 236.881C44.6529 235.944 44.1881 234.71 43.7028 233.177C43.302 231.879 42.9653 230.464 42.6927 228.932C42.3988 227.421 42.2542 225.752 42.2589 223.923C42.2677 220.478 42.7544 217.342 43.719 214.516C44.7047 211.712 46.232 209.27 48.3007 207.191C50.3268 205.155 52.8942 203.567 56.0029 202.426C59.1328 201.286 62.7611 200.721 66.8879 200.732C70.8019 200.742 74.2998 201.303 77.3813 202.417C80.4629 203.531 83.0646 205.133 85.1865 207.222C87.2446 209.248 88.8125 211.687 89.89 214.539C90.9675 217.413 91.5017 220.594 91.4927 224.081C91.4862 226.633 91.1712 229.174 90.5478 231.703C89.9243 234.253 88.8321 237.079 87.2713 240.18L79.7729 240.16L79.7742 239.682C81.9719 237.072 83.574 234.481 84.5804 231.911C85.5868 229.34 86.0938 226.587 86.1014 223.653C86.1076 221.25 85.7196 219.079 84.9375 217.142C84.1767 215.226 82.9792 213.511 81.3452 211.997C79.7536 210.526 77.7357 209.372 75.2915 208.537C72.8686 207.722 70.0618 207.311 66.871 207.303C63.5313 207.294 60.6584 207.733 58.2524 208.62C55.8463 209.529 53.8862 210.693 52.3723 212.114C50.7943 213.599 49.6199 215.329 48.849 217.305C48.0993 219.302 47.7217 221.406 47.716 223.618C47.7081 226.659 48.2219 229.51 49.2574 232.171C50.2929 234.832 51.85 237.324 53.9287 239.647L53.9275 240.094L46.5249 240.075Z" fill="black"/>
<path d="M84.805 305.949L84.8487 288.979L42.9535 288.871L42.9698 282.555L84.8649 282.663L84.9086 265.693L90.5244 265.707L90.4208 305.964L84.805 305.949Z" fill="black"/>
<path d="M117.496 486.072H100.61V481.709H106.21V447.688H100.61V443.324H117.496V447.688H111.896V481.709H117.496V486.072Z" fill="black"/>
<path d="M153.565 486.072H148.166V467.812C148.166 466.339 148.08 464.961 147.908 463.678C147.736 462.377 147.42 461.362 146.96 460.635C146.482 459.831 145.792 459.238 144.893 458.855C143.993 458.453 142.825 458.252 141.389 458.252C139.915 458.252 138.374 458.616 136.766 459.343C135.157 460.07 133.616 460.999 132.142 462.128V486.072H126.743V454.003H132.142V457.563C133.827 456.166 135.569 455.075 137.369 454.29C139.168 453.506 141.016 453.113 142.911 453.113C146.376 453.113 149.018 454.156 150.837 456.243C152.656 458.329 153.565 461.334 153.565 465.257V486.072Z" fill="black"/>
<path d="M191.127 454.004L178.147 486.072H172.719L159.825 454.004H165.684L175.62 479.526L185.47 454.004H191.127Z" fill="black"/>
<path d="M223.119 486.072H217.749V482.655C217.27 482.981 216.619 483.44 215.796 484.034C214.992 484.608 214.207 485.067 213.441 485.412C212.541 485.852 211.508 486.215 210.34 486.502C209.172 486.809 207.803 486.962 206.233 486.962C203.342 486.962 200.892 486.005 198.882 484.091C196.871 482.177 195.866 479.737 195.866 476.77C195.866 474.339 196.383 472.378 197.417 470.885C198.47 469.373 199.963 468.186 201.897 467.325C203.85 466.463 206.195 465.88 208.933 465.573C211.67 465.267 214.609 465.038 217.749 464.884V464.052C217.749 462.827 217.529 461.812 217.088 461.009C216.667 460.205 216.054 459.573 215.25 459.114C214.485 458.674 213.566 458.377 212.494 458.224C211.421 458.071 210.301 457.994 209.134 457.994C207.717 457.994 206.137 458.186 204.395 458.568C202.653 458.932 200.853 459.468 198.996 460.176H198.709V454.693C199.762 454.405 201.284 454.09 203.275 453.745C205.266 453.401 207.229 453.228 209.162 453.228C211.421 453.228 213.384 453.42 215.049 453.803C216.734 454.166 218.189 454.798 219.414 455.697C220.621 456.578 221.54 457.717 222.171 459.114C222.803 460.511 223.119 462.243 223.119 464.31V486.072ZM217.749 478.177V469.248C216.102 469.344 214.159 469.487 211.919 469.679C209.698 469.87 207.937 470.148 206.635 470.511C205.084 470.952 203.83 471.641 202.873 472.578C201.916 473.497 201.437 474.77 201.437 476.397C201.437 478.234 201.993 479.622 203.103 480.56C204.213 481.478 205.908 481.938 208.186 481.938C210.081 481.938 211.814 481.574 213.384 480.847C214.954 480.1 216.409 479.21 217.749 478.177ZM219.702 437.955L211.862 448.692H207.583L212.723 437.955H219.702Z" fill="black"/>
<path d="M238.97 486.072H233.571V441.4H238.97V486.072Z" fill="black"/>
<path d="M255.454 448.635H249.366V443.037H255.454V448.635ZM255.11 486.072H249.711V454.004H255.11V486.072Z" fill="black"/>
<path d="M291.81 486.072H286.411V482.713C284.861 484.053 283.243 485.096 281.558 485.842C279.873 486.589 278.045 486.962 276.073 486.962C272.244 486.962 269.2 485.488 266.941 482.541C264.701 479.593 263.581 475.507 263.581 470.282C263.581 467.564 263.964 465.143 264.73 463.018C265.515 460.894 266.568 459.085 267.889 457.592C269.191 456.138 270.703 455.028 272.426 454.262C274.168 453.497 275.968 453.114 277.825 453.114C279.51 453.114 281.003 453.296 282.305 453.659C283.607 454.004 284.975 454.549 286.411 455.296V441.4H291.81V486.072ZM286.411 478.177V459.774C284.956 459.124 283.654 458.674 282.506 458.425C281.357 458.176 280.103 458.052 278.744 458.052C275.719 458.052 273.364 459.104 271.679 461.21C269.995 463.315 269.152 466.301 269.152 470.167C269.152 473.976 269.803 476.876 271.105 478.866C272.407 480.837 274.494 481.823 277.365 481.823C278.897 481.823 280.448 481.488 282.018 480.818C283.587 480.129 285.052 479.249 286.411 478.177Z" fill="black"/>
<path d="M329.775 470.052C329.775 475.277 328.434 479.401 325.754 482.425C323.074 485.449 319.484 486.962 314.985 486.962C310.448 486.962 306.839 485.449 304.159 482.425C301.498 479.401 300.167 475.277 300.167 470.052C300.167 464.827 301.498 460.702 304.159 457.678C306.839 454.635 310.448 453.113 314.985 453.113C319.484 453.113 323.074 454.635 325.754 457.678C328.434 460.702 329.775 464.827 329.775 470.052ZM324.203 470.052C324.203 465.898 323.39 462.817 321.762 460.807C320.135 458.779 317.876 457.764 314.985 457.764C312.056 457.764 309.778 458.779 308.15 460.807C306.542 462.817 305.738 465.898 305.738 470.052C305.738 474.071 306.552 477.124 308.179 479.21C309.806 481.277 312.075 482.311 314.985 482.311C317.857 482.311 320.106 481.287 321.734 479.239C323.38 477.172 324.203 474.109 324.203 470.052Z" fill="black"/>
</svg>
