<svg width="389" height="551" viewBox="0 0 389 551" fill="none" xmlns="http://www.w3.org/2000/svg">
<path d="M217.109 54.2397C172.612 52.4707 126.62 67.817 108.502 106.91L108.064 107.854L108.784 397.585H113.466H322.532V107.778L322.04 106.79C305.914 74.4044 261.606 56.0088 217.109 54.2397ZM216.736 63.6138C258.423 65.2711 299.144 83.3143 313.151 110.213V388.204H118.144L117.453 110.122C133.663 76.289 174.965 61.9532 216.736 63.6138Z" fill="black"/>
<path d="M263.617 222.523H163.452V244.948H263.617V222.523Z" fill="#D30000"/>
<path d="M164.207 129.211C160.128 129.211 156.696 132.642 156.696 136.722V365.06C156.696 369.14 160.128 372.567 164.207 372.567H262.872C266.951 372.567 270.379 369.14 270.379 365.06V136.722C270.379 132.642 266.951 129.211 262.872 129.211H164.207ZM166.078 138.592H260.998V363.186H166.078V138.592Z" fill="black"/>
<path d="M46.5249 240.142C46.0174 238.971 45.5415 237.906 45.0973 236.948C44.653 236.011 44.1882 234.776 43.7029 233.243C43.302 231.944 42.9653 230.529 42.6927 228.996C42.3988 227.485 42.2542 225.815 42.2589 223.986C42.2678 220.54 42.7545 217.403 43.719 214.577C44.7047 211.771 46.232 209.329 48.3007 207.25C50.3268 205.213 52.8942 203.624 56.0028 202.483C59.1328 201.342 62.7611 200.777 66.8879 200.788C70.8019 200.798 74.2997 201.36 77.3813 202.474C80.4629 203.588 83.0646 205.191 85.1865 207.281C87.2447 209.307 88.8125 211.746 89.8901 214.6C90.9675 217.474 91.5018 220.656 91.4928 224.144C91.4862 226.697 91.1713 229.238 90.5479 231.768C89.9244 234.319 88.8322 237.145 87.2714 240.247L79.773 240.228L79.7743 239.749C81.972 237.138 83.5741 234.547 84.5805 231.976C85.5869 229.405 86.0939 226.651 86.1014 223.716C86.1076 221.312 85.7197 219.141 84.9376 217.203C84.1767 215.287 82.9793 213.572 81.3452 212.057C79.7536 210.585 77.7357 209.431 75.2915 208.595C72.8686 207.781 70.0618 207.369 66.871 207.361C63.5313 207.353 60.6584 207.792 58.2524 208.679C55.8463 209.588 53.8863 210.753 52.3723 212.174C50.7943 213.659 49.6199 215.39 48.849 217.366C48.0994 219.363 47.7217 221.468 47.716 223.681C47.7082 226.723 48.222 229.574 49.2575 232.236C50.2929 234.898 51.85 237.391 53.9287 239.715L53.9276 240.161L46.5249 240.142Z" fill="black"/>
<path d="M84.805 306.035L84.8487 289.06L42.9535 288.952L42.9698 282.634L84.8649 282.742L84.9086 265.767L90.5244 265.781L90.4208 306.049L84.805 306.035Z" fill="black"/>
<path d="M123.526 469.012H119.46L107.746 446.912V469.012H104.677V444.307H109.771L120.456 464.483V444.307H123.526V469.012Z" fill="black"/>
<path d="M144.249 469.013H141.146V467.039C140.87 467.227 140.494 467.492 140.018 467.835C139.553 468.167 139.1 468.432 138.657 468.632C138.137 468.886 137.54 469.096 136.865 469.262C136.191 469.439 135.4 469.528 134.493 469.528C132.822 469.528 131.407 468.975 130.245 467.868C129.084 466.762 128.503 465.352 128.503 463.637C128.503 462.233 128.802 461.099 129.399 460.236C130.007 459.362 130.87 458.676 131.987 458.178C133.116 457.681 134.471 457.343 136.052 457.166C137.634 456.989 139.332 456.857 141.146 456.768V456.287C141.146 455.579 141.019 454.993 140.765 454.528C140.521 454.064 140.167 453.699 139.703 453.433C139.26 453.179 138.729 453.007 138.11 452.919C137.49 452.83 136.843 452.786 136.169 452.786C135.35 452.786 134.437 452.897 133.431 453.118C132.424 453.328 131.384 453.638 130.311 454.047H130.146V450.878C130.754 450.712 131.633 450.529 132.784 450.33C133.934 450.131 135.068 450.032 136.185 450.032C137.49 450.032 138.624 450.142 139.587 450.364C140.56 450.574 141.401 450.939 142.109 451.459C142.805 451.967 143.336 452.626 143.701 453.433C144.066 454.241 144.249 455.242 144.249 456.436V469.013ZM141.146 464.45V459.29C140.195 459.345 139.072 459.428 137.778 459.539C136.495 459.65 135.477 459.81 134.725 460.02C133.829 460.275 133.105 460.673 132.551 461.215C131.998 461.746 131.722 462.481 131.722 463.422C131.722 464.484 132.043 465.285 132.684 465.828C133.326 466.358 134.305 466.624 135.621 466.624C136.716 466.624 137.717 466.414 138.624 465.993C139.531 465.562 140.372 465.048 141.146 464.45ZM144 442.15C143.878 443.832 143.453 445.098 142.722 445.95C141.992 446.802 141.013 447.228 139.786 447.228C139.188 447.228 138.635 447.123 138.126 446.912C137.618 446.691 137.136 446.376 136.683 445.967C136.163 445.491 135.721 445.137 135.356 444.905C135.002 444.661 134.609 444.54 134.177 444.54C133.602 444.54 133.171 444.789 132.883 445.286C132.596 445.784 132.43 446.453 132.386 447.294H130.212C130.3 445.624 130.737 444.363 131.523 443.511C132.308 442.659 133.27 442.233 134.41 442.233C134.963 442.233 135.494 442.344 136.003 442.565C136.523 442.775 137.015 443.08 137.479 443.478C137.999 443.931 138.458 444.274 138.856 444.506C139.266 444.728 139.653 444.838 140.018 444.838C140.582 444.838 141.019 444.584 141.329 444.075C141.649 443.566 141.826 442.925 141.86 442.15H144Z" fill="black"/>
<path d="M166.052 459.754C166.052 462.774 165.278 465.158 163.729 466.906C162.18 468.653 160.106 469.527 157.507 469.527C154.885 469.527 152.8 468.653 151.252 466.906C149.714 465.158 148.945 462.774 148.945 459.754C148.945 456.734 149.714 454.351 151.252 452.603C152.8 450.844 154.885 449.965 157.507 449.965C160.106 449.965 162.18 450.844 163.729 452.603C165.278 454.351 166.052 456.734 166.052 459.754ZM162.833 459.754C162.833 457.354 162.363 455.573 161.423 454.412C160.482 453.239 159.177 452.653 157.507 452.653C155.815 452.653 154.498 453.239 153.558 454.412C152.629 455.573 152.164 457.354 152.164 459.754C152.164 462.077 152.634 463.841 153.575 465.047C154.515 466.242 155.826 466.839 157.507 466.839C159.166 466.839 160.466 466.247 161.406 465.064C162.357 463.869 162.833 462.099 162.833 459.754Z" fill="black"/>
<path d="M194.391 453.882H194.225C193.76 453.771 193.307 453.694 192.864 453.65C192.433 453.594 191.919 453.567 191.321 453.567C190.359 453.567 189.43 453.782 188.534 454.214C187.638 454.634 186.775 455.182 185.946 455.856V469.014H182.826V450.48H185.946V453.218C187.184 452.223 188.274 451.52 189.214 451.111C190.165 450.691 191.133 450.48 192.118 450.48C192.66 450.48 193.053 450.497 193.296 450.53C193.539 450.552 193.904 450.602 194.391 450.68V453.882Z" fill="black"/>
<path d="M212.841 460.07H199.186C199.186 461.209 199.357 462.204 199.7 463.056C200.043 463.897 200.513 464.588 201.11 465.13C201.686 465.661 202.366 466.059 203.151 466.325C203.948 466.59 204.822 466.723 205.773 466.723C207.034 466.723 208.3 466.474 209.572 465.976C210.856 465.468 211.768 464.97 212.31 464.483H212.476V467.884C211.425 468.327 210.352 468.697 209.257 468.996C208.162 469.295 207.012 469.444 205.806 469.444C202.731 469.444 200.331 468.615 198.605 466.955C196.879 465.285 196.017 462.918 196.017 459.854C196.017 456.823 196.841 454.417 198.489 452.636C200.148 450.855 202.327 449.965 205.026 449.965C207.526 449.965 209.451 450.695 210.8 452.155C212.161 453.615 212.841 455.689 212.841 458.377V460.07ZM209.805 457.68C209.794 456.043 209.379 454.777 208.56 453.881C207.753 452.985 206.519 452.537 204.86 452.537C203.19 452.537 201.857 453.029 200.862 454.013C199.877 454.998 199.318 456.22 199.186 457.68H209.805Z" fill="black"/>
<path d="M231.973 469.013H228.87V467.038C228.593 467.226 228.217 467.492 227.742 467.835C227.277 468.167 226.823 468.432 226.381 468.631C225.861 468.886 225.264 469.096 224.589 469.262C223.914 469.439 223.123 469.527 222.216 469.527C220.546 469.527 219.13 468.974 217.969 467.868C216.807 466.762 216.227 465.351 216.227 463.637C216.227 462.232 216.525 461.098 217.123 460.235C217.731 459.362 218.594 458.676 219.711 458.178C220.839 457.68 222.194 457.343 223.776 457.166C225.358 456.989 227.056 456.856 228.87 456.768V456.287C228.87 455.579 228.743 454.992 228.488 454.528C228.245 454.063 227.891 453.698 227.426 453.433C226.984 453.178 226.453 453.007 225.833 452.918C225.214 452.83 224.567 452.786 223.892 452.786C223.074 452.786 222.161 452.896 221.154 453.117C220.148 453.328 219.108 453.637 218.035 454.047H217.869V450.877C218.478 450.712 219.357 450.529 220.507 450.33C221.658 450.131 222.792 450.031 223.909 450.031C225.214 450.031 226.348 450.142 227.31 450.363C228.284 450.573 229.124 450.938 229.832 451.458C230.529 451.967 231.06 452.625 231.425 453.433C231.79 454.24 231.973 455.241 231.973 456.436V469.013ZM228.87 464.45V459.29C227.919 459.345 226.796 459.428 225.502 459.539C224.218 459.649 223.201 459.81 222.449 460.02C221.553 460.274 220.828 460.672 220.275 461.214C219.722 461.745 219.445 462.481 219.445 463.421C219.445 464.483 219.766 465.285 220.408 465.827C221.049 466.358 222.028 466.624 223.345 466.624C224.44 466.624 225.441 466.413 226.348 465.993C227.255 465.562 228.096 465.047 228.87 464.45Z" fill="black"/>
<path d="M253.011 466.906C253.011 470.047 252.298 472.353 250.871 473.824C249.444 475.296 247.248 476.031 244.284 476.031C243.299 476.031 242.337 475.959 241.397 475.816C240.468 475.683 239.549 475.489 238.642 475.235V472.049H238.808C239.317 472.248 240.125 472.492 241.231 472.779C242.337 473.078 243.443 473.227 244.549 473.227C245.611 473.227 246.491 473.1 247.187 472.846C247.884 472.591 248.426 472.237 248.814 471.784C249.201 471.352 249.477 470.832 249.643 470.224C249.809 469.616 249.892 468.935 249.892 468.183V466.491C248.952 467.243 248.05 467.807 247.187 468.183C246.336 468.548 245.246 468.731 243.919 468.731C241.706 468.731 239.948 467.934 238.642 466.341C237.348 464.737 236.701 462.481 236.701 459.572C236.701 457.979 236.922 456.607 237.365 455.457C237.818 454.295 238.432 453.294 239.207 452.454C239.926 451.668 240.799 451.06 241.828 450.629C242.857 450.186 243.88 449.965 244.898 449.965C245.971 449.965 246.867 450.075 247.586 450.297C248.316 450.507 249.085 450.833 249.892 451.276L250.091 450.479H253.011V466.906ZM249.892 463.919V453.814C249.062 453.438 248.288 453.173 247.569 453.018C246.861 452.852 246.153 452.769 245.445 452.769C243.731 452.769 242.381 453.344 241.397 454.495C240.412 455.645 239.92 457.315 239.92 459.505C239.92 461.585 240.285 463.161 241.015 464.234C241.745 465.307 242.956 465.844 244.649 465.844C245.556 465.844 246.463 465.672 247.37 465.329C248.288 464.975 249.129 464.505 249.892 463.919Z" fill="black"/>
<path d="M274.664 460.07H261.009C261.009 461.209 261.18 462.204 261.523 463.056C261.866 463.897 262.336 464.588 262.934 465.13C263.509 465.661 264.189 466.059 264.975 466.325C265.771 466.59 266.645 466.723 267.596 466.723C268.857 466.723 270.124 466.474 271.396 465.976C272.679 465.468 273.591 464.97 274.133 464.483H274.299V467.884C273.248 468.327 272.176 468.697 271.08 468.996C269.985 469.295 268.835 469.444 267.629 469.444C264.554 469.444 262.154 468.615 260.428 466.955C258.703 465.285 257.84 462.918 257.84 459.854C257.84 456.823 258.664 454.417 260.312 452.636C261.971 450.855 264.15 449.965 266.849 449.965C269.349 449.965 271.274 450.695 272.624 452.155C273.984 453.615 274.664 455.689 274.664 458.377V460.07ZM271.628 457.68C271.617 456.043 271.202 454.777 270.384 453.881C269.576 452.985 268.343 452.537 266.683 452.537C265.013 452.537 263.68 453.029 262.685 454.013C261.7 454.998 261.142 456.22 261.009 457.68H271.628Z" fill="black"/>
<path d="M294.89 469.013H291.77V458.46C291.77 457.608 291.721 456.812 291.621 456.071C291.521 455.319 291.339 454.732 291.074 454.312C290.797 453.847 290.399 453.505 289.879 453.283C289.359 453.051 288.684 452.935 287.855 452.935C287.003 452.935 286.112 453.145 285.183 453.565C284.254 453.986 283.364 454.522 282.512 455.175V469.013H279.393V450.479H282.512V452.537C283.485 451.729 284.492 451.099 285.532 450.645C286.571 450.192 287.639 449.965 288.734 449.965C290.736 449.965 292.263 450.568 293.313 451.773C294.364 452.979 294.89 454.716 294.89 456.983V469.013Z" fill="black"/>
<path d="M310.52 468.848C309.934 469.003 309.292 469.13 308.595 469.23C307.909 469.329 307.295 469.379 306.753 469.379C304.862 469.379 303.424 468.87 302.439 467.852C301.455 466.835 300.963 465.203 300.963 462.958V453.102H298.855V450.48H300.963V445.154H304.082V450.48H310.52V453.102H304.082V461.547C304.082 462.521 304.104 463.284 304.148 463.837C304.193 464.379 304.347 464.888 304.613 465.364C304.856 465.806 305.188 466.132 305.609 466.343C306.04 466.542 306.693 466.641 307.566 466.641C308.075 466.641 308.606 466.569 309.159 466.426C309.712 466.271 310.111 466.143 310.354 466.044H310.52V468.848Z" fill="black"/>
<path d="M329.8 460.07H316.145C316.145 461.209 316.316 462.204 316.659 463.056C317.002 463.897 317.472 464.588 318.069 465.13C318.645 465.661 319.325 466.059 320.11 466.325C320.907 466.59 321.781 466.723 322.732 466.723C323.993 466.723 325.259 466.474 326.531 465.976C327.815 465.468 328.727 464.97 329.269 464.483H329.435V467.884C328.384 468.327 327.311 468.697 326.216 468.996C325.121 469.295 323.971 469.444 322.765 469.444C319.69 469.444 317.29 468.615 315.564 466.955C313.838 465.285 312.976 462.918 312.976 459.854C312.976 456.823 313.8 454.417 315.448 452.636C317.107 450.855 319.286 449.965 321.985 449.965C324.485 449.965 326.41 450.695 327.759 452.155C329.12 453.615 329.8 455.689 329.8 458.377V460.07ZM326.764 457.68C326.753 456.043 326.338 454.777 325.519 453.881C324.712 452.985 323.478 452.537 321.819 452.537C320.149 452.537 318.816 453.029 317.821 454.013C316.836 454.998 316.277 456.22 316.145 457.68H326.764Z" fill="black"/>
</svg>
