<?xml version="1.0" encoding="utf-8"?>
<!-- Generator: Adobe Illustrator 25.2.1, SVG Export Plug-In . SVG Version: 6.00 Build 0)  -->
<svg version="1.1" id="Camada_1" xmlns="http://www.w3.org/2000/svg" xmlns:xlink="http://www.w3.org/1999/xlink" x="0px" y="0px"
	 viewBox="0 0 2160 2160" style="enable-background:new 0 0 2160 2160;" xml:space="preserve">
<style type="text/css">
	.st0{fill:#38BAEC;}
	.st1{fill:url(#SVGID_1_);}
	.st2{fill:#EE659D;}
	.st3{fill:#606060;}
</style>
<image style="display:none;overflow:visible;" width="800" height="533" xlink:href="853C0BFC.jpg"  transform="matrix(2.005 0 0 2.005 276 431.1675)">
</image>
<g>
	<g>
		<path class="st0" d="M1546.5,445.6v184c0,23.6-19.1,42.7-42.7,42.7c-23.6,0-42.7-19.1-42.7-42.7v-76.8l-123.4,123.4
			c42.2,55,67.3,123.9,67.3,198.6h-91.3c0-62.9-24.5-122-69-166.5c-44.5-44.5-103.6-69-166.5-69c-62.9,0-122,24.5-166.5,69
			c-44.5,44.5-69,103.6-69,166.5h-91.3c0-180.5,146.3-326.8,326.8-326.8c72.8,0,140.1,23.8,194.4,64.1l123.9-123.9h-76.8
			c-23.6,0-42.7-19.1-42.7-42.7c0-23.6,19.1-42.7,42.7-42.7h184C1527.4,403,1546.5,422.1,1546.5,445.6z"/>
		<linearGradient id="SVGID_1_" gradientUnits="userSpaceOnUse" x1="975.0251" y1="978.0898" x2="1181.462" y2="771.6528">
			<stop  offset="0" style="stop-color:#EE659D"/>
			<stop  offset="1" style="stop-color:#38BAEC"/>
		</linearGradient>
		<path class="st1" d="M1265.2,874.9c0,26-21.1,47.1-47.1,47.1h-92.7v92.7c0,26-21.1,47.1-47.1,47.1c-26,0-47.1-21.1-47.1-47.1V922
			h-92.7c-26,0-47.1-21.1-47.1-47.1c0-26,21.1-47.1,47.1-47.1h92.7V735c0-26,21.1-47.1,47.1-47.1c26,0,47.1,21.1,47.1,47.1v92.7
			h92.7C1244.1,827.8,1265.2,848.9,1265.2,874.9z"/>
		<path class="st2" d="M1405,874.9c0,3.9-0.1,7.7-0.2,11.6c0,0.9-0.1,1.7-0.1,2.6c0,0.8-0.1,1.6-0.1,2.5c-0.1,1.6-0.2,3.3-0.3,4.9
			c-0.1,1.2-0.2,2.4-0.3,3.6c-0.1,1.4-0.2,2.9-0.4,4.3c-0.1,1.2-0.2,2.4-0.4,3.6c-0.7,7.2-1.7,14.4-2.9,21.4
			c-0.2,1.1-0.4,2.2-0.6,3.3c-0.2,1.3-0.5,2.5-0.7,3.8c0,0.2-0.1,0.3-0.1,0.5c-0.2,1.2-0.5,2.4-0.7,3.6c0,0.1,0,0.2-0.1,0.3
			c-0.2,1-0.4,2-0.6,3c-0.3,1.6-0.7,3.2-1.1,4.7c-0.3,1.3-0.6,2.5-0.9,3.8c-1.1,4.3-2.2,8.6-3.4,12.9c-0.6,2-1.2,4-1.8,6
			c-0.5,1.5-0.9,3-1.4,4.5c-0.4,1.1-0.7,2.2-1.1,3.3c-0.6,1.7-1.1,3.3-1.7,4.9c-0.3,0.8-0.6,1.6-0.9,2.5c-1.5,4.2-3.1,8.3-4.8,12.4
			c-0.9,2.3-1.9,4.5-2.8,6.7c-0.5,1.3-1.1,2.5-1.7,3.7c-0.5,1.2-1.1,2.4-1.7,3.6c-0.5,1.2-1.1,2.3-1.6,3.5c-2,4.1-4,8.1-6.1,12
			c-0.6,1.1-1.1,2.1-1.7,3.2c-5.3,9.6-11,19-17.2,28c-0.6,0.9-1.2,1.8-1.8,2.6c-0.4,0.6-0.8,1.2-1.2,1.8c-0.6,0.9-1.3,1.8-1.9,2.7
			c-0.3,0.5-0.7,0.9-1,1.4c-0.7,1-1.4,1.9-2.1,2.9c-0.7,1-1.4,1.9-2.2,2.9c-1.5,1.9-2.9,3.8-4.4,5.7c-0.8,0.9-1.5,1.9-2.3,2.8
			c-0.8,0.9-1.5,1.9-2.3,2.8c-0.8,0.9-1.5,1.8-2.3,2.7c-0.8,0.9-1.6,1.8-2.4,2.7c-0.8,0.9-1.6,1.8-2.4,2.7c-0.8,0.9-1.6,1.8-2.4,2.7
			c-0.8,0.9-1.6,1.7-2.4,2.6c0,0,0,0-0.1,0.1c-0.8,0.9-1.6,1.7-2.4,2.5c-0.8,0.9-1.7,1.7-2.5,2.6c-3.3,3.4-6.8,6.8-10.3,10
			c-0.9,0.8-1.8,1.6-2.6,2.4c-0.9,0.8-1.8,1.6-2.7,2.4c-0.9,0.8-1.7,1.5-2.6,2.3c-2.4,2.1-4.8,4.2-7.2,6.2c-0.9,0.7-1.7,1.4-2.6,2.1
			c-2.3,1.8-4.6,3.7-6.9,5.4c-1.5,1.2-3.1,2.3-4.6,3.5c-13.1,9.7-27,18.4-41.4,26c-2.3,1.2-4.7,2.4-7.1,3.6
			c-1.2,0.6-2.4,1.2-3.6,1.8c-1.2,0.6-2.4,1.1-3.6,1.7c-1,0.5-2.1,1-3.1,1.4c-2.6,1.2-5.2,2.3-7.8,3.4c-1.2,0.5-2.4,1-3.7,1.5
			c-1.2,0.5-2.4,1-3.7,1.5c-5.3,2.1-10.6,4-16,5.8c-0.9,0.3-1.9,0.6-2.8,0.9c-1.2,0.4-2.3,0.8-3.5,1.1c-1.4,0.4-2.8,0.9-4.2,1.3
			c-0.9,0.3-1.9,0.6-2.8,0.8c-1.6,0.5-3.3,0.9-4.9,1.4c-1.3,0.4-2.6,0.7-3.9,1c-1.3,0.3-2.6,0.6-3.8,1c0,0-0.1,0-0.1,0
			c-1.3,0.3-2.6,0.6-3.9,0.9c-1.4,0.3-2.8,0.6-4.2,0.9c-1.2,0.3-2.4,0.5-3.5,0.8c-1,0.2-2.1,0.4-3.2,0.6c-1,0.2-2.1,0.4-3.1,0.6
			c-0.9,0.2-1.8,0.3-2.6,0.5c-1.1,0.2-2.2,0.4-3.3,0.6c-1.2,0.2-2.4,0.4-3.6,0.6c-0.9,0.1-1.7,0.3-2.6,0.4c-0.9,0.1-1.9,0.3-2.8,0.4
			c0.1,1,0.1,2,0.1,3V1315h92c25.2,0,45.6,20.4,45.6,45.6c0,25.2-20.4,45.6-45.6,45.6h-92v92c0,25.2-20.4,45.6-45.6,45.6
			s-45.6-20.4-45.6-45.6v-92h-92c-25.2,0-45.6-20.4-45.6-45.6c0-25.2,20.4-45.6,45.6-45.6h92v-113.3c0-1.1,0-2.2,0.1-3.3
			c-3.9-0.5-7.8-1.2-11.6-1.9c-2.3-0.4-4.5-0.8-6.8-1.3c-1.2-0.2-2.3-0.5-3.5-0.7c-0.1,0-0.1,0-0.2,0c-1-0.2-2.1-0.5-3.1-0.7
			c-0.8-0.2-1.6-0.3-2.3-0.5c-0.9-0.2-1.8-0.4-2.7-0.6c-0.9-0.2-1.7-0.4-2.6-0.6c-8.5-2.1-16.8-4.5-25-7.3c-1-0.4-2.1-0.7-3.1-1.1
			c-0.9-0.3-1.8-0.6-2.7-0.9c-1.4-0.5-2.8-1-4.2-1.5c-1.1-0.4-2.3-0.9-3.4-1.3c-3.5-1.4-7-2.8-10.5-4.3c-1-0.4-2-0.8-3-1.3
			c-2.4-1-4.7-2.1-7.1-3.2c-1.2-0.6-2.4-1.1-3.6-1.7c-4.2-2-8.4-4.2-12.5-6.4c-0.9-0.5-1.9-1-2.8-1.5c-2.1-1.1-4.2-2.3-6.3-3.5
			c-2.1-1.2-4.1-2.4-6.2-3.7c-1-0.6-2.1-1.3-3.1-1.9c-1-0.6-2-1.3-3-1.9c-3.1-2-6.1-4-9.1-6c-0.9-0.6-1.7-1.2-2.6-1.8
			c-2.3-1.6-4.5-3.2-6.8-4.9c-0.7-0.5-1.4-1.1-2.1-1.6c-6.7-5-13.2-10.3-19.4-15.8c-0.7-0.6-1.5-1.3-2.2-1.9
			c-1.1-0.9-2.1-1.9-3.1-2.9c-0.8-0.8-1.7-1.5-2.5-2.3c-8.7-8.2-17-16.9-24.8-26c-0.8-0.9-1.5-1.8-2.3-2.7c-3.1-3.7-6.1-7.4-9-11.2
			c-1.5-1.9-2.9-3.8-4.3-5.7c-5.5-7.5-10.7-15.3-15.6-23.3c-0.5-0.8-1-1.6-1.4-2.4c-2.9-4.8-5.7-9.8-8.3-14.8
			c-0.6-1.2-1.2-2.3-1.8-3.5c-0.6-1.2-1.2-2.3-1.8-3.5c-0.6-1.2-1.2-2.4-1.8-3.6c-0.6-1.2-1.1-2.4-1.7-3.6
			c-3.4-7.3-6.6-14.8-9.4-22.4c-0.4-1-0.8-2.1-1.1-3.1c-1.4-3.8-2.8-7.7-4-11.6c-0.4-1.2-0.8-2.4-1.1-3.6
			c-1.7-5.3-3.2-10.7-4.6-16.2c-0.3-1.1-0.6-2.3-0.9-3.5c-0.7-2.8-1.4-5.7-2-8.6c-0.2-1-0.4-2-0.6-3c-0.6-2.8-1.1-5.7-1.6-8.5
			c-0.2-1.2-0.4-2.3-0.6-3.5c-0.3-1.5-0.5-2.9-0.7-4.4c-0.1-0.7-0.2-1.4-0.3-2.1c-0.3-2-0.6-3.9-0.8-5.9c-0.2-1.5-0.4-3-0.5-4.4
			c-0.2-1.3-0.3-2.6-0.4-3.9c-0.2-1.6-0.3-3.2-0.4-4.8c-0.1-1.2-0.2-2.4-0.3-3.5c-0.1-1-0.2-2.1-0.2-3.1c-0.1-0.9-0.1-1.8-0.2-2.7
			c-0.1-1.7-0.2-3.3-0.3-5c0-0.9-0.1-1.9-0.1-2.8c0-1.2-0.1-2.5-0.1-3.7c-0.1-2.6-0.1-5.2-0.1-7.8h91.3c0,62.9,24.5,122,69,166.5
			c44.5,44.5,103.6,69,166.5,69c62.9,0,122-24.5,166.5-69c44.5-44.5,69-103.6,69-166.5H1405z"/>
	</g>
	<g>
		<g>
			<path class="st3" d="M118.9,1670.7c-12.9-2.2-30.6-12-22.7-27.6c2.3-4.6,4.9-5.8,6.6-5.5c1.1,0.2,1.7,0.8,1.7,1.6
				c0.2,2.8,2.2,5.8,5.5,8.3c3.8-20.5,18.9-39.9,31-56.3c1-1.4,3-1.9,5.3-1.6c5.4,0.7,12.4,5.7,10,8.9
				c-12.4,17.6-22.8,35.1-30.6,55.2c22.1,2.5,36.6-17.3,42.9-35.9c4.6-13.6,1.1-33.5-16.3-35.3c-15.9-1.6-34.5,5.8-36.6,23.8
				c0,1.1-4.6,1.9-9.2,1.2c-2.6-0.4-5.2-1.2-7-2.7c-9-7.3-2-19.3,5.5-24.4c13.5-9.2,31.9-9.7,47.6-7.3c25.8,3.9,39,26.9,31.4,51.9
				C176,1654.6,150.4,1675.9,118.9,1670.7z"/>
			<path class="st3" d="M234.8,1646.1c-4.4,12.4-16.3,23.4-29.9,22.1c-19.5-1.9-24.5-20.3-16.6-36.9c5.5-11.8,18.3-22.8,32-21.1
				C238.4,1612.5,239.5,1632.6,234.8,1646.1z M220.7,1620.1c-8.3-1.1-26,30.2-13.4,32.6C217,1654.6,231.9,1621.7,220.7,1620.1z"/>
			<path class="st3" d="M295.3,1648.4c-5.2,14.5-20,28.7-37,26.8c-20.6-2.3-23.7-22.2-14.6-38.2c5.9-10.4,16.4-21.6,29.3-20.3
				c7.4,0.8,14.2,5.2,12.9,16.3c-1.2,10.4-8.9,15.2-18.8,14.1c-5.5-0.6-8.4-2.8-8.4-2.8c-3.3,6.7-0.9,15.3,9.8,16.3
				c10.9,1.1,19-9,23.8-17.7C292.6,1642.7,297.1,1643.4,295.3,1648.4z M261.5,1638.9c2.3,1.2,4.4,1.8,6.3,2
				c11.6,1.3,14.7-13.6,9.1-14.2C272.1,1626.2,266.2,1631.5,261.5,1638.9z"/>
			<path class="st3" d="M366.1,1655.6c-4.6,13.8-18,31.4-34.6,27.7c-16.8-3.7-8.8-26.4-4.1-36.3c2.2-4.9,2.6-9.4-1.6-10
				c-7.7-1-13.1,5.9-16.2,11.1c-3.8,8-7.3,17.9-7,27c0,0,2.6,5.7-7.3,4.3c-24.3-3.4,2-46.8,7.8-56.3c1.3-1.9,3.9-2.4,6.6-2.1
				c5.6,0.6,12,4.7,10.1,7.9c-0.6,0.9-1.2,1.9-1.6,2.8c5.3-3.7,11.7-5.8,18-5c12.1,1.6,14.8,13.6,9.7,23.1
				c-1.6,3.4-6.9,14.2,0.1,14.9c7.9,0.8,14.5-8.5,17.7-14.3C367.5,1651.3,366.1,1655.6,366.1,1655.6z"/>
			<path class="st3" d="M368.2,1700.1c-5.3-2,9.1-15.5,9.1-15.5c1.1-0.1,2.2-0.1,3-0.1c3.6,0.4,5.1,2.2,5.1,2.2
				c-1.9,2.2-2.9,3.4-4.8,5.6c6.2,0.6,12,4.4,11.2,12.3c-1.2,11.6-12.9,17.8-23.8,16.6c-13.8-1.6-16.1-8.3-15.7-11.5
				c0.8-7.5,8.4-9.2,11.1-8.9c1.6,0.2-1.7,1.4-2.1,5.4c-0.1,1.3-0.2,5.2,7.4,6c4.9,0.5,10.4-2.7,10.9-7.7c0.2-2.5-0.4-5.6-4.9-6.1
				c-3.5-0.3-5.6,1.1-6.4,1.7C368.3,1700.1,368.3,1700.1,368.2,1700.1z M415.2,1660.8c-4.9,14.6-19.5,29-36.4,27.4
				c-20.5-1.9-23.3-21.4-15.3-37.4c5.4-11.1,17.2-22.2,30.5-21.2c4.3,0.3,15.7,3.9,14.7,13.6c-0.5,4.8-4.2,8.3-9.2,7.8
				c-4.5-0.4-7.9-4.3-7.4-9c0.1-0.7,0.3-1.4,0.4-2c-7.2,3.6-13.8,14.2-14.8,21.4c-0.6,4.1,0.4,11.2,11,12.1
				c10.9,0.9,18.9-9.3,23.6-18.1C412.3,1655.2,416.8,1655.8,415.2,1660.8z"/>
			<path class="st3" d="M487.1,1667c-4.4,13.9-17,32.3-34.1,28.5c-9.4-2.1-11.6-10-9.9-19.3c-5.8,7.2-13.6,12.6-23.3,11.7
				c-28.2-2.7-1.8-55.7,22.9-53.5c3.4,0.3,11.8,1.8,14.3,8.1c0.8-1.4,1.4-2.6,2-3.5c1.1-1.9,3.6-2.5,6.3-2.3
				c5.6,0.5,12.3,4.4,10.5,7.7c-4.1,7.2-15.4,29.5-8.7,32.3c5.1,2.2,14.4-8.8,17.5-14.6C488.6,1662.6,487.1,1667,487.1,1667z
				 M447.8,1659.7c2-3.7,6.7-15.2,0.9-16.2c-10.8-1.9-30.7,27.8-16.8,30.6C438.5,1675.4,445.3,1664.3,447.8,1659.7z"/>
			<path class="st3" d="M515.9,1647.2c-4.1-0.3-11.3,1.8-14.4,5.6c-8.2,12.4,23.7,17.5,18,34.8c-3.6,10.8-14.4,16.9-25.5,15.9
				c-15-1.3-16.3-9.4-14.7-16.1c1.9-8.1,8.9-10.7,11.1-10.5c3.7,0.3-8,10.3,5.8,11.4c6,0.5,9.1-1,9.9-4.3
				c-0.8-13.9-25.4-11.7-22.4-29.2c4-15,20.5-20.6,34.5-19.4c19.3,1.7,13.8,29.4,0.5,29.9c-5.9,0.2-7.5-9.5-4.2-8.8
				C517.8,1657.2,525.5,1648,515.9,1647.2z"/>
			<path class="st3" d="M589.3,1668.8c9.5,0.5,13.8,9.9,10.6,9.5c-16.9-1.9-16,18.6,1.5,18.9c23.6,0.4,8.8-23,1.2-32.7
				c-17-21.5-5.4-46.3,24.6-44.4c2,0.1,4.1,0.5,6.1,0.9c13.8,3.7,23.4,21.1,14.3,34.1c-3,4.7-7.1,6.1-10.8,5.9
				c-7.9-0.5-14.3-8.4-7.5-10.7c11-3.8,9.3-15.7,0.9-17.4c-19.6-3.9-19.4,17.9-7.3,28.2c7.1,8.2,14.9,17.2,14.4,29
				c-1,20.9-24.2,25.7-41.1,24.5C564.9,1712.2,553,1667,589.3,1668.8z"/>
			<path class="st3" d="M702.6,1682.3c-4.3,14.7-18.2,29.8-35.3,28.9c-20.7-1.1-24.9-20.8-16.8-37.2c5.3-10.7,15.1-22.5,28-22
				c7.4,0.3,14.5,4.4,13.9,15.5c-0.6,10.4-8,15.7-17.9,15.1c-5.5-0.3-8.5-2.3-8.5-2.3c-2.9,6.8,0,15.3,10.7,15.7
				c10.9,0.4,18.4-10.1,22.7-19C699.5,1676.7,704.1,1677.2,702.6,1682.3z M668.3,1674.7c2.3,1.1,4.5,1.6,6.4,1.7
				c11.6,0.7,13.9-14.4,8.3-14.7C678.2,1661.4,672.6,1667,668.3,1674.7z"/>
			<path class="st3" d="M758.1,1684.7c-3.8,14.2-16.2,30.1-32.8,26.9c-6.1-1.2-10.7-4.6-13.6-9.5c-3,4.1-6.1,8.6-9,13.8
				c-0.1,0.1-0.2,0.1-0.5,0.1c-2.9-0.2-6.5-2.8-8.2-5.1c3-4.8,7.6-11.9,13.8-19.4c-2-11.4-1.3-24.1,3.3-34.7c0.9-2,3.5-2.7,6.2-2.5
				c5.6,0.3,12.5,4,10.8,7.3c-1.5,2.9-2.5,7.2-2.8,12c5.1-4.6,11-8.8,17.3-12.2c2.6-1.5,6.6,5.9,5,7.6c-1.1,1.1-11.1,5.9-21.2,15.9
				c1.8,5.7,5.5,9.9,12.2,10.2c7.9,0.4,14-9.3,16.8-15.2C759.3,1680.2,758.1,1684.7,758.1,1684.7z"/>
			<path class="st3" d="M829.7,1687.7c-3.1,13.4-12.6,28.2-27.3,28.1c-8.4-0.1-14.6-4.4-15.3-13.6c-5.5,9.2-15.2,15.7-26.1,13.8
				c-24.1-4.1-2.2-45.2,3.6-56.7c1-2,3.5-2.7,6.2-2.6c5.7,0.3,12.6,3.9,10.9,7.2c-3.8,7.4-14.2,30.1-7.3,32.7
				c5.1,1.9,14.3-9.3,16.7-15c3.5-8.2,7.6-16.8,8.3-18.2c1-2,3.5-2.7,6.2-2.6c5.7,0.2,12.7,3.8,11,7.2c-1.8,3.6-4.9,9.7-6.9,15.3
				c-2.3,6.3-3,12.2,1.6,12.4c7.9,0.3,13-7,15.7-12.9C830.8,1683.1,829.7,1687.7,829.7,1687.7z"/>
			<path class="st3" d="M902.3,1689.8c-3.5,14.1-15,33.3-32.3,30.4c-9.5-1.6-12.1-9.3-11-18.7c-5.4,7.5-12.8,13.4-22.6,13
				c-28.3-1.1-5.1-55.5,19.7-54.8c3.5,0.1,11.9,1.1,14.7,7.2c0.8-1.4,1.3-2.7,1.8-3.6c1-2,3.4-2.7,6.2-2.7
				c5.6,0.2,12.6,3.7,10.9,7.1c-3.6,7.5-13.6,30.3-6.8,32.8c5.2,1.9,13.8-9.6,16.6-15.6C903.5,1685.3,902.3,1689.8,902.3,1689.8z
				 M862.6,1684.9c1.8-3.9,5.8-15.6-0.1-16.3c-10.8-1.3-29,29.6-14.9,31.6C854.3,1701.1,860.4,1689.7,862.6,1684.9z"/>
			<path class="st3" d="M938.4,1690.6c-3.3,14.2-15,30.6-31.3,28.7c-15.9-1.8-11.5-24.8-8.1-34.3c5.4-15.2,11.3-30.2,17.5-45.1
				c0.9-2,3.3-2.9,6.1-2.8c5.7,0.1,12.9,3.8,11.3,7.2c-6.2,13.3-11.1,27.1-15.6,41.2c-2.6,8.6-2.9,14.4,1.8,14.5
				c8,0.2,12.8-8.1,15.5-14.3C939.5,1686,938.4,1690.6,938.4,1690.6z"/>
			<path class="st3" d="M1046.4,1692c-3.2,14.1-14.9,33-31.7,31c-17.2-2-11.3-25.4-7.6-35.8c1.6-5.1,1.5-9.6-2.5-9.8
				c-9.9-0.4-14.6,11.9-15.9,16.5c-2,7.2-3.5,13.9-1.6,17.7c0.1,0.2-2.5,7.9-13.5,5.3c-18.9-4.5,9.1-40-1.3-43
				c-7.6-2.2-17.2,12.8-19.1,16.8c-6.1,18.3-4.3,26.4-4.2,26.4c0,0,3,5.4-6.8,5c-24.5-1.2-2.5-46.7,2.4-56.8c1.1-2,3.6-2.8,6.5-2.7
				c5.6,0.1,12.4,3.5,10.7,7c-0.6,1.4-1.2,2.7-1.9,3.9c5.7-6.1,13.2-11.2,21.6-10.6c9.4,0.8,11.5,6.6,11,13.9
				c5.7-6.1,13.1-10.7,21.2-10.4c12.2,0.4,16.3,12.1,12,22c-1.2,3.5-5.6,14.8,1.6,14.8c7.9,0.1,13.5-9.9,16.2-15.9
				C1047.3,1687.5,1046.4,1692,1046.4,1692z"/>
			<path class="st3" d="M1096,1692.4c-3.5,15-16.5,30.8-33.6,30.8c-20.7,0-26.1-19.4-18.8-36.2c4.7-11,13.8-23.3,26.7-23.5
				c7.4-0.1,14.7,3.6,14.7,14.7c0,10.4-7.1,16.1-17,16.1c-5.5,0-8.6-1.8-8.6-1.8c-2.5,7,0.9,15.3,11.6,15.1
				c10.9-0.2,17.8-11.1,21.6-20.3C1092.6,1687.1,1097.2,1687.3,1096,1692.4z M1061.3,1686.8c2.4,1,4.5,1.3,6.5,1.3
				c11.6,0,13.1-15.2,7.4-15.2C1070.5,1673,1065.2,1678.9,1061.3,1686.8z"/>
			<path class="st3" d="M1167,1691.5c-3,14.2-14.2,33.2-31.2,31.5c-17.1-1.8-11.8-25.2-8.2-35.6c1.6-5.1,1.5-9.6-2.7-9.7
				c-7.7-0.1-12.3,7.3-14.8,12.9c-2.9,8.4-5.2,18.7-3.9,27.6c0,0,3.2,5.4-6.7,5.1c-24.5-0.6-3.4-46.7,1.3-56.8
				c1.1-2,3.6-2.9,6.3-2.9c5.6,0,12.4,3.3,10.9,6.7c-0.5,1-0.9,2-1.3,3c4.9-4.3,10.9-7.1,17.3-7c12.2,0.2,16.2,11.9,12.3,21.8
				c-1.2,3.6-5.3,14.9,1.8,14.8c7.9-0.1,13.5-10.1,15.9-16.2C1167.9,1687,1167,1691.5,1167,1691.5z"/>
			<path class="st3" d="M1203,1691c-2.9,14-13,31.6-29.8,29.3c-16.3-2.2-12.7-22.3-9.2-33.3c1.7-6,3.6-11.7,6-19.1
				c-3.2,0-5.9,0.1-6.9,0.1c-3.3,0-2.2-5.8,3-5.8c1.4,0,3.5,0,5.8-0.1c2-5.6,4.4-12,7.5-20.3c0.8-2,3.2-2.9,5.9-2.9
				c5.6-0.1,12.9,3.1,11.4,6.6c-0.9,2.3-3.4,8.2-6.3,16.5c1.6,0,2.7,0,3.7-0.1c5.5-0.1,3.6,5.6-0.1,5.7c-0.8,0-2.9,0-5.5,0.1
				c-1.9,5.7-3.9,12.2-5.6,19.1c-2.1,8.6-2.3,14.4,2.3,14.3c7.9-0.1,12.3-8.6,14.9-14.7C1204,1686.5,1203,1691,1203,1691z"/>
			<path class="st3" d="M1252.6,1690.3c-3.2,15-15.8,31.2-32.9,31.6c-20.7,0.5-26.5-18.8-19.6-35.8c4.4-11.1,13.3-23.6,26.2-24.1
				c7.4-0.3,14.8,3.2,15,14.4c0.2,10.4-6.7,16.3-16.7,16.5c-5.5,0.1-8.7-1.6-8.7-1.6c-2.4,7,1.2,15.2,11.9,14.8
				c10.9-0.4,17.6-11.5,21.1-20.8C1249.1,1685,1253.7,1685.1,1252.6,1690.3z M1217.9,1685.5c2.4,0.9,4.6,1.2,6.5,1.2
				c11.6-0.2,12.7-15.5,7.1-15.3C1226.7,1671.4,1221.5,1677.5,1217.9,1685.5z"/>
			<path class="st3" d="M1390.1,1630.5c5-0.2,12.7,9.2,6.8,17c-2.5,3.2-6.4,4.9-12,5c-11.6,0.3-23.4-3.2-34.7-5.9
				c-6.6-1.6-12.5-2.2-17.7-2.1c-9.9,0.3-21.2,4-26.9,12.8c-7.1,12.5,0.3,14-3.7,15.7c-2.9,1.2-5.7,1.9-8.3,1.9
				c-17,0.3-15.9-17.9-6.7-27.3c8.5-8.4,20.9-11.2,32.4-11.5c18.1-0.5,36.3,5.1,53.9,4.8c4.9-0.1,12.1-2.5,13.7-7.7
				C1387.6,1631.4,1388.8,1630.5,1390.1,1630.5z M1342.6,1649.6c5.6-0.2,13.1,3.5,11.5,7c-4.5,8.8-8.6,18.1-12,27.4
				c-4.1,11.9-8.5,24.2-9.1,36.9c0,0,2.8,3.8-6.9,3.2c-16.1-1-7.2-28.1-4-36.4c4.4-12.2,9.8-24.1,15.6-35.7
				C1338.5,1650.4,1340.5,1649.7,1342.6,1649.6z"/>
			<path class="st3" d="M1370.3,1676.2c-4,9.9-7.7,13.3-10.7,13.4c-5.8,0.2-8.7-11.1-5.2-10.8c8.8-2.7,12-10.3,15.3-19.1
				c-3.3-0.9-5.7-3.9-5.8-7.5c-0.2-4.5,3.5-8.3,8-8.5c4.5-0.2,6.8,3.4,7,7.9c0.1,1.7-0.1,3.1-0.5,4.4c1.9,1.3,5.4,2.9,11.6,1.8
				c1.2-0.6,2.6-1.1,4.3-1.1c5.6-0.3,12.6,2.7,11.3,6.2c-3.1,7.7-11.2,31.2-4.3,33.2c5.2,1.5,13.1-10.6,15.4-16.8
				c4,0,3.1,4.6,3.1,4.6c-2.5,14.3-12.3,34.6-30,32.7c-23.5-2.5-7.6-41.6-2.8-53.8c-3.3,0.3-7.2,0.1-10.7-1.6
				C1374.4,1665.6,1371.4,1673.7,1370.3,1676.2z"/>
			<path class="st3" d="M1492.2,1679.9c-2.3,14.3-12.2,34.4-29.7,33c-9.6-0.8-12.9-8.2-12.5-17.7c-4.8,8-11.7,14.4-21.4,14.9
				c-28.3,1.3-9.7-54.9,15-56.2c3.5-0.2,12,0.1,15.3,6c0.6-1.5,1-2.8,1.5-3.8c0.8-2.1,3.2-3,5.9-3.2c5.6-0.3,12.8,2.6,11.5,6.1
				c-3,7.7-11,31.4-4,33.2c5.3,1.4,13-10.7,15.3-16.9C1493,1675.4,1492.2,1679.9,1492.2,1679.9z M1452.2,1678.4
				c1.4-4,4.4-16-1.5-16.2c-10.9-0.4-26.4,31.9-12.2,32.7C1445.3,1695.3,1450.4,1683.3,1452.2,1678.4z"/>
			<path class="st3" d="M1563.8,1675.4c-2.2,14.4-12.3,34-29.3,33.2c-17.2-0.8-13.2-24.5-10.2-35.1c1.4-5.2,0.9-9.7-3.2-9.5
				c-7.7,0.3-11.9,8-14,13.7c-2.4,8.6-4.1,18.9-2.3,27.8c0,0,3.5,5.2-6.4,5.5c-24.5,0.8-6-46.4-1.9-56.8c1-2.1,3.4-3.1,6.1-3.2
				c5.6-0.3,12.6,2.6,11.3,6.1c-0.4,1-0.8,2.1-1.1,3c4.6-4.6,10.5-7.7,16.9-8c12.2-0.5,16.9,10.9,13.5,21.1
				c-1,3.6-4.4,15.2,2.7,14.7c7.9-0.5,12.9-10.9,15-17.1C1564.5,1670.8,1563.8,1675.4,1563.8,1675.4z"/>
			<path class="st3" d="M1589.2,1651.4c-4.1,0.3-10.9,3.5-13.4,7.7c-6.2,13.5,26.1,13.6,23.1,31.6c-1.9,11.3-11.6,18.8-22.7,19.6
				c-15,1-17.6-6.8-17-13.7c0.7-8.3,7.1-11.9,9.4-12.1c3.7-0.3-6.3,11.4,7.5,10.4c6-0.4,8.9-2.4,9.1-5.8c-3-13.6-26.9-7.7-26.6-25.5
				c1.6-15.5,17.1-23.5,31.1-24.4c19.3-1.3,18.1,27,5,29.5c-5.8,1.1-8.8-8.2-5.5-8C1592.6,1661,1598.7,1650.7,1589.2,1651.4z"/>
			<path class="st3" d="M1718.2,1663c-1.9,14.4-11.7,34.2-28.6,33.9c-17.3-0.4-13.7-24.2-11-34.9c1.1-5.2,0.6-9.7-3.5-9.5
				c-9.9,0.6-13.4,13.3-14.2,18c-1.3,7.4-2.2,14.2,0.1,17.7c0.1,0.2-1.7,8.1-13,6.5c-19.3-2.7,5.2-40.7-5.4-42.6
				c-7.8-1.4-15.9,14.4-17.4,18.5c-4.3,18.8-1.8,26.7-1.7,26.7c0,0,3.5,5.1-6.3,5.6c-24.5,1.2-6.9-46.3-3-56.7
				c0.9-2.1,3.4-3.1,6.2-3.3c5.6-0.4,12.7,2.3,11.4,5.9c-0.5,1.5-1,2.8-1.5,4c5.1-6.6,12.1-12.5,20.5-12.6
				c9.4-0.1,12.1,5.4,12.3,12.8c5.1-6.6,12-11.9,20.1-12.4c12.1-0.8,17.4,10.5,14.1,20.8c-0.9,3.6-4.2,15.3,3,14.6
				c7.9-0.7,12.5-11.1,14.6-17.4C1718.8,1658.4,1718.2,1663,1718.2,1663z"/>
			<path class="st3" d="M1754,1659.6c-1.8,14.4-10.8,35-28.4,34c-24.3-1.3-8.6-44.4-4.3-56.7c0.8-2.1,3.1-3.1,5.8-3.4
				c5.7-0.5,13,2.1,11.8,5.7c-2.6,7.9-9.9,31.8-2.8,33.4c5.3,1.2,12.6-11.2,14.5-17.5C1754.6,1655,1754,1659.6,1754,1659.6z
				 M1727.5,1620.8c-0.4-4.6,2.9-8.6,7.5-9c4.5-0.4,8.5,2.9,9,7.5c0.4,4.6-2.9,8.6-7.4,9C1732,1628.7,1728,1625.4,1727.5,1620.8z"/>
			<path class="st3" d="M1778.6,1635c-4,0.4-10.8,3.8-13.1,8.1c-5.9,13.7,26.5,12.9,24,31c-1.6,11.3-11.1,19.2-22.2,20.2
				c-15,1.4-17.8-6.3-17.4-13.2c0.5-8.3,6.8-12.1,9.1-12.3c3.7-0.4-6,11.6,7.8,10.2c6-0.6,8.8-2.7,9-6c-3.3-13.5-27.1-6.9-27.3-24.7
				c1.2-15.5,16.4-23.9,30.5-25.3c19.2-1.8,18.8,26.5,5.8,29.3c-5.8,1.3-9.1-8-5.7-7.9C1782.3,1644.5,1788.1,1634.1,1778.6,1635z"/>
			<path class="st3" d="M1825,1630.2c-4,0.4-10.8,3.9-13.1,8.2c-5.8,13.7,26.6,12.7,24.2,30.8c-1.5,11.3-11,19.2-22.1,20.4
				c-15,1.5-17.8-6.2-17.5-13.1c0.4-8.3,6.7-12.1,9-12.4c3.7-0.4-5.9,11.6,7.8,10.2c6-0.6,8.8-2.7,8.9-6.1
				c-3.4-13.5-27.2-6.8-27.4-24.6c1.1-15.5,16.3-24.1,30.3-25.5c19.2-2,19,26.4,6,29.3c-5.8,1.3-9.1-7.9-5.8-7.8
				C1828.7,1639.6,1834.5,1629.2,1825,1630.2z"/>
			<path class="st3" d="M1882.8,1646c-1.5,14.5-10.1,35.2-27.8,34.5c-24.3-0.9-9.4-44.2-5.3-56.6c0.7-2.1,3-3.2,5.7-3.5
				c5.7-0.6,13.1,1.9,11.9,5.5c-2.5,7.9-9.3,31.9-2.1,33.4c5.4,1.1,12.4-11.4,14.2-17.7C1883.3,1641.4,1882.8,1646,1882.8,1646z
				 M1873.4,1595.5c0.8,6.8-15,17-19.6,17.5c-3.2,0.4-5.4-1.7-5.3-4.4c0.4-7.6,11.8-16.8,19.8-18.2
				C1871,1589.9,1873.1,1592.5,1873.4,1595.5z"/>
			<path class="st3" d="M1934.2,1619.8c-2.8,22.4-12.7,55.6-39.8,57.1c-25,1.4-14.4-43.8-10.6-56.6c0.7-2.1,3-3.2,5.7-3.5
				c5.7-0.7,13.1,1.8,12,5.4c-2.5,8.6-4.2,33,3,33.2c9.2,0.3,14.6-27.3,17.3-39.3c0.3-1.5,1.8-1.7,2.8-1.8
				C1928.4,1613.8,1935.2,1614.3,1934.2,1619.8z"/>
			<path class="st3" d="M1990.3,1633.1c-1.6,15.3-12.5,32.7-29.5,34.9c-20.5,2.7-28.4-15.9-23.3-33.5c3.3-11.5,10.7-24.9,23.6-26.7
				c7.4-1,15,1.7,16.5,12.7c1.3,10.4-5,16.9-14.9,18.2c-5.5,0.7-8.8-0.7-8.8-0.7c-1.6,7.3,2.8,15,13.5,13.5
				c10.8-1.6,16.3-13.3,18.9-22.9C1986.2,1628.3,1990.8,1627.9,1990.3,1633.1z M1955.1,1632c2.5,0.6,4.7,0.7,6.6,0.5
				c11.6-1.5,11-16.7,5.5-16C1962.4,1617.1,1958,1623.6,1955.1,1632z"/>
			<path class="st3" d="M2025.3,1628.1c-1.2,14.5-9.4,35.4-27.1,35.1c-24.3-0.4-10.3-44-6.5-56.4c0.7-2.1,2.9-3.3,5.7-3.6
				c5.7-0.8,13.1,1.6,12,5.2c-2.3,7.9-8.7,32.1-1.5,33.5c5.4,1,12.1-11.7,13.8-18C2025.7,1623.5,2025.3,1628.1,2025.3,1628.1z
				 M1997.3,1590.3c-0.6-4.6,2.6-8.7,7.2-9.3c4.5-0.6,8.6,2.5,9.3,7.1c0.6,4.6-2.6,8.7-7.1,9.3
				C2002.1,1598.1,1997.9,1594.9,1997.3,1590.3z"/>
			<path class="st3" d="M2048.9,1602.6c-4,0.6-10.7,4.2-12.8,8.6c-5.3,13.9,27,11.9,25.2,30c-1.1,11.4-10.4,19.6-21.4,21.1
				c-14.9,2-18-5.6-17.9-12.5c0.1-8.3,6.3-12.3,8.6-12.7c3.7-0.5-5.6,11.8,8.2,9.9c6-0.8,8.7-3,8.7-6.4
				c-3.9-13.4-27.4-5.9-28.2-23.7c0.6-15.6,15.5-24.6,29.5-26.4c19.2-2.6,19.9,25.7,7,29.1c-5.7,1.5-9.4-7.6-6-7.7
				C2053,1611.9,2058.4,1601.2,2048.9,1602.6z"/>
		</g>
	</g>
</g>
</svg>
